<?xml version="1.0"?>
<svg xmlns="http://www.w3.org/2000/svg" width="288" height="99" viewBox="0 0 288 99" fill="none">
<rect x="0.000244141" y="67.3652" width="9.38567" height="9.38567" fill="#B0E1FF"/>
<rect x="11.0925" y="67.3652" width="9.38567" height="9.38567" fill="#B0E1FF"/>
<rect x="55.4609" y="67.3652" width="9.38567" height="9.38567" fill="#B0E1FF"/>
<rect x="66.5532" y="67.3652" width="9.38567" height="9.38567" fill="#B0E1FF"/>
<rect x="55.4609" y="56.2733" width="9.38567" height="9.38567" fill="#B0E1FF"/>
<rect x="66.5532" y="56.2733" width="9.38567" height="9.38567" fill="#B0E1FF"/>
<rect x="55.4609" y="22.9965" width="9.38567" height="9.38567" fill="#B0E1FF"/>
<rect x="66.5532" y="22.9965" width="9.38567" height="9.38567" fill="#B0E1FF"/>
<rect x="11.0925" y="78.4572" width="9.38567" height="9.38567" fill="#B0E1FF"/>
<rect x="22.1846" y="78.4572" width="9.38567" height="9.38567" fill="#B0E1FF"/>
<rect x="33.2766" y="78.4572" width="9.38567" height="9.38567" fill="#B0E1FF"/>
<rect x="33.2766" y="89.55" width="9.38567" height="9.38567" fill="#B0E1FF"/>
<rect x="33.2766" y="0.8125" width="9.38567" height="9.38567" fill="#B0E1FF"/>
<rect x="44.3689" y="78.4572" width="9.38567" height="9.38567" fill="#B0E1FF"/>
<rect x="55.4609" y="78.4572" width="9.38567" height="9.38567" fill="#B0E1FF"/>
<rect x="11.0925" y="45.1813" width="9.38567" height="9.38567" fill="#B0E1FF"/>
<rect x="22.1846" y="45.1813" width="9.38567" height="9.38567" fill="#B0E1FF"/>
<rect x="33.2766" y="45.1813" width="9.38567" height="9.38567" fill="#B0E1FF"/>
<rect x="44.3689" y="45.1813" width="9.38567" height="9.38567" fill="#B0E1FF"/>
<rect x="55.4609" y="45.1813" width="9.38567" height="9.38567" fill="#B0E1FF"/>
<rect x="11.0925" y="11.9045" width="9.38567" height="9.38567" fill="#B0E1FF"/>
<rect x="22.1846" y="11.9045" width="9.38567" height="9.38567" fill="#B0E1FF"/>
<rect x="33.2766" y="11.9045" width="9.38567" height="9.38567" fill="#B0E1FF"/>
<rect x="44.3689" y="11.9045" width="9.38567" height="9.38567" fill="#B0E1FF"/>
<rect x="55.4609" y="11.9045" width="9.38567" height="9.38567" fill="#B0E1FF"/>
<rect x="11.0925" y="34.0893" width="9.38567" height="9.38567" fill="#B0E1FF"/>
<rect x="11.0925" y="22.9965" width="9.38567" height="9.38567" fill="#B0E1FF"/>
<rect x="0.000244141" y="34.0893" width="9.38567" height="9.38567" fill="#B0E1FF"/>
<rect x="0.000244141" y="22.9965" width="9.38567" height="9.38567" fill="#B0E1FF"/>
<rect x="11.0925" y="11.9045" width="9.38567" height="9.38567" fill="#B0E1FF"/>
<rect x="106.031" y="67.3652" width="9.38567" height="9.38567" fill="#B0E1FF"/>
<rect x="117.123" y="67.3652" width="9.38567" height="9.38567" fill="#B0E1FF"/>
<rect x="161.492" y="67.3652" width="9.38567" height="9.38567" fill="#B0E1FF"/>
<rect x="172.584" y="67.3652" width="9.38567" height="9.38567" fill="#B0E1FF"/>
<rect x="161.492" y="56.2733" width="9.38567" height="9.38567" fill="#B0E1FF"/>
<rect x="172.584" y="56.2733" width="9.38567" height="9.38567" fill="#B0E1FF"/>
<rect x="161.492" y="22.9965" width="9.38567" height="9.38567" fill="#B0E1FF"/>
<rect x="172.584" y="22.9965" width="9.38567" height="9.38567" fill="#B0E1FF"/>
<rect x="117.123" y="78.4572" width="9.38567" height="9.38567" fill="#B0E1FF"/>
<rect x="128.215" y="78.4572" width="9.38567" height="9.38567" fill="#B0E1FF"/>
<rect x="139.307" y="78.4572" width="9.38567" height="9.38567" fill="#B0E1FF"/>
<rect x="139.307" y="89.55" width="9.38567" height="9.38567" fill="#B0E1FF"/>
<rect x="139.307" y="0.8125" width="9.38567" height="9.38567" fill="#B0E1FF"/>
<rect x="150.4" y="78.4572" width="9.38567" height="9.38567" fill="#B0E1FF"/>
<rect x="161.492" y="78.4572" width="9.38567" height="9.38567" fill="#B0E1FF"/>
<rect x="117.123" y="45.1813" width="9.38567" height="9.38567" fill="#B0E1FF"/>
<rect x="128.215" y="45.1813" width="9.38567" height="9.38567" fill="#B0E1FF"/>
<rect x="139.307" y="45.1813" width="9.38567" height="9.38567" fill="#B0E1FF"/>
<rect x="150.4" y="45.1813" width="9.38567" height="9.38567" fill="#B0E1FF"/>
<rect x="161.492" y="45.1813" width="9.38567" height="9.38567" fill="#B0E1FF"/>
<rect x="117.123" y="11.9045" width="9.38567" height="9.38567" fill="#B0E1FF"/>
<rect x="128.215" y="11.9045" width="9.38567" height="9.38567" fill="#B0E1FF"/>
<rect x="139.307" y="11.9045" width="9.38567" height="9.38567" fill="#B0E1FF"/>
<rect x="150.4" y="11.9045" width="9.38567" height="9.38567" fill="#B0E1FF"/>
<rect x="161.492" y="11.9045" width="9.38567" height="9.38567" fill="#B0E1FF"/>
<rect x="117.123" y="34.0893" width="9.38567" height="9.38567" fill="#B0E1FF"/>
<rect x="117.123" y="22.9965" width="9.38567" height="9.38567" fill="#B0E1FF"/>
<rect x="106.031" y="34.0893" width="9.38567" height="9.38567" fill="#B0E1FF"/>
<rect x="106.031" y="22.9965" width="9.38567" height="9.38567" fill="#B0E1FF"/>
<rect x="117.123" y="11.9045" width="9.38567" height="9.38567" fill="#B0E1FF"/>
<rect x="212" y="67.3652" width="9.38567" height="9.38567" fill="#B0E1FF"/>
<rect x="223.093" y="67.3652" width="9.38567" height="9.38567" fill="#B0E1FF"/>
<rect x="267.461" y="67.3652" width="9.38567" height="9.38567" fill="#B0E1FF"/>
<rect x="278.553" y="67.3652" width="9.38567" height="9.38567" fill="#B0E1FF"/>
<rect x="267.461" y="56.2733" width="9.38567" height="9.38567" fill="#B0E1FF"/>
<rect x="278.553" y="56.2733" width="9.38567" height="9.38567" fill="#B0E1FF"/>
<rect x="267.461" y="22.9965" width="9.38567" height="9.38567" fill="#B0E1FF"/>
<rect x="278.553" y="22.9965" width="9.38567" height="9.38567" fill="#B0E1FF"/>
<rect x="223.093" y="78.4572" width="9.38567" height="9.38567" fill="#B0E1FF"/>
<rect x="234.185" y="78.4572" width="9.38567" height="9.38567" fill="#B0E1FF"/>
<rect x="245.277" y="78.4572" width="9.38567" height="9.38567" fill="#B0E1FF"/>
<rect x="245.277" y="89.55" width="9.38567" height="9.38567" fill="#B0E1FF"/>
<rect x="245.277" y="0.8125" width="9.38567" height="9.38567" fill="#B0E1FF"/>
<rect x="256.369" y="78.4572" width="9.38567" height="9.38567" fill="#B0E1FF"/>
<rect x="267.461" y="78.4572" width="9.38567" height="9.38567" fill="#B0E1FF"/>
<rect x="223.093" y="45.1813" width="9.38567" height="9.38567" fill="#B0E1FF"/>
<rect x="234.185" y="45.1813" width="9.38567" height="9.38567" fill="#B0E1FF"/>
<rect x="245.277" y="45.1813" width="9.38567" height="9.38567" fill="#B0E1FF"/>
<rect x="256.369" y="45.1813" width="9.38567" height="9.38567" fill="#B0E1FF"/>
<rect x="267.461" y="45.1813" width="9.38567" height="9.38567" fill="#B0E1FF"/>
<rect x="223.093" y="11.9045" width="9.38567" height="9.38567" fill="#B0E1FF"/>
<rect x="234.185" y="11.9045" width="9.38567" height="9.38567" fill="#B0E1FF"/>
<rect x="245.277" y="11.9045" width="9.38567" height="9.38567" fill="#B0E1FF"/>
<rect x="256.369" y="11.9045" width="9.38567" height="9.38567" fill="#B0E1FF"/>
<rect x="267.461" y="11.9045" width="9.38567" height="9.38567" fill="#B0E1FF"/>
<rect x="223.093" y="34.0893" width="9.38567" height="9.38567" fill="#B0E1FF"/>
<rect x="223.093" y="22.9965" width="9.38567" height="9.38567" fill="#B0E1FF"/>
<rect x="212" y="34.0893" width="9.38567" height="9.38567" fill="#B0E1FF"/>
<rect x="212" y="22.9965" width="9.38567" height="9.38567" fill="#B0E1FF"/>
<rect x="223.093" y="11.9045" width="9.38567" height="9.38567" fill="#B0E1FF"/>
</svg>
